<?xml version="1.0" encoding="utf-8"?>
<!-- Generator: Adobe Illustrator 16.0.0, SVG Export Plug-In . SVG Version: 6.00 Build 0)  -->
<!DOCTYPE svg PUBLIC "-//W3C//DTD SVG 1.1//EN" "http://www.w3.org/Graphics/SVG/1.1/DTD/svg11.dtd">
<svg version="1.1" id="레이어_1" xmlns="http://www.w3.org/2000/svg" xmlns:xlink="http://www.w3.org/1999/xlink" x="0px"
	 y="0px" width="current" height="current" viewBox="0 0 50 50" enable-background="new 0 0 50 50" xml:space="preserve">
<g>
	<path fill="#FFFFFF" stroke="#1B2226" stroke-width="0.6937" stroke-miterlimit="10" d="M47.372,37.257
		c0.042-0.586,0.027-1.198-0.052-1.839c-0.673-5.419-1.189-12.898-2.168-16.782c-17.555-2.732-38.287-0.292-40.047,0
		c-0.48,5.444-1.56,15.918-1.362,17.411c0.046,0.351,0.089,0.865,0.179,1.482C11.307,37.532,41.166,37.918,47.372,37.257z"/>
	<path fill="#1B2226" stroke="#1B2226" stroke-width="0.6937" stroke-miterlimit="10" d="M36.842,3.629
		c-11.693-2.577-24.429-0.595-27.6,1.238c-3.884,2.246-8.969,9.514-4.235,13.769c1.758-0.292,22.491-2.732,40.048,0
		C47.1,18.636,47.52,5.981,36.842,3.629z"/>
	<path fill="#1B2226" stroke="#1B2226" stroke-width="0.6937" stroke-miterlimit="10" d="M39.646,5.563
		c-0.076,0.817-0.802,1.418-1.617,1.342l-5.182-0.483c-0.817-0.076-1.418-0.801-1.342-1.619L31.76,2.09
		c0.075-0.818,0.8-1.418,1.617-1.342l5.181,0.483c0.817,0.076,1.419,0.801,1.342,1.618L39.646,5.563z"/>
	<path fill="#1B2226" stroke="#1B2226" stroke-width="0.6937" stroke-miterlimit="10" d="M8.967,6.059
		c0.075,0.817,0.8,1.418,1.617,1.343l5.181-0.484c0.816-0.076,1.418-0.801,1.342-1.618l-0.253-2.714
		c-0.076-0.818-0.802-1.418-1.619-1.342l-5.181,0.483C9.238,1.803,8.637,2.528,8.712,3.346L8.967,6.059z"/>
	
		<ellipse fill="#1B2226" stroke="#1B2226" stroke-width="0.6937" stroke-miterlimit="10" cx="18.31" cy="27.363" rx="1.685" ry="3.469"/>
	
		<ellipse fill="#1B2226" stroke="#1B2226" stroke-width="0.6937" stroke-miterlimit="10" cx="33.225" cy="27.462" rx="1.684" ry="3.469"/>
	<path fill="#FDA678" d="M22.527,34.164c0,1.475-1.898,2.143-4.239,2.143s-4.239-0.636-4.239-2.143c0-1.632,1.898-2.144,4.239-2.144
		S22.527,32.5,22.527,34.164z"/>
	<path fill="#FDA678" d="M37.443,34.164c0,1.475-1.898,2.143-4.24,2.143c-2.341,0-4.239-0.636-4.239-2.143
		c0-1.632,1.898-2.144,4.239-2.144C35.545,32.021,37.443,32.5,37.443,34.164z"/>
	<path fill="#1B2226" stroke="#1B2226" stroke-width="0.6937" stroke-miterlimit="10" d="M3.922,37.529
		c0.383,2.707,1.603,7.402,7.451,9.016c7.186,1.982,23.979,1.068,26.994,0.589c3.431-0.545,8.526-3.168,9.005-9.877
		C41.166,37.918,11.307,37.532,3.922,37.529z"/>
	
		<path fill="#FFFFFF" stroke="#1B2226" stroke-width="0.4725" stroke-linecap="round" stroke-linejoin="round" stroke-miterlimit="10" d="
		M36.952,9.48c-0.61,0-1.759,4.772,0.537,4.368C39.184,13.548,37.692,9.48,36.952,9.48z"/>
	
		<path fill="#FFFFFF" stroke="#1B2226" stroke-width="0.3499" stroke-linecap="round" stroke-linejoin="round" stroke-miterlimit="10" d="
		M39.709,12.85c-0.452,0-1.301,3.534,0.397,3.234C41.362,15.862,40.257,12.85,39.709,12.85z"/>
	
		<path fill="none" stroke="#2B3438" stroke-width="0.3469" stroke-linecap="round" stroke-linejoin="round" stroke-miterlimit="10" d="
		M9.49,4.991c0.496-0.322,3.939-1.585,6.467-1.809"/>
	
		<path fill="none" stroke="#2B3438" stroke-width="0.3469" stroke-linecap="round" stroke-linejoin="round" stroke-miterlimit="10" d="
		M32.259,3.183c1.61,0,5.141,0.625,6.877,1.443"/>
	
		<path fill="#FFFFFF" stroke="#1B2226" stroke-width="0.7706" stroke-linecap="round" stroke-linejoin="round" stroke-miterlimit="10" d="
		M14.719,32.021c0.254,0.789,1.531,3.754,1.807,4.145c0.811,1.149,1.352,2.075,1.603,2.455c0.667,1.007-0.403,1.635-1.131,0.957
		c-0.358-0.335-0.537-0.495-0.603-0.371c-0.043,0.08,0.493,0.765,0.445,1.685c-0.099,1.95-3.881,2.726-4.558-0.133
		c-0.304-1.278-0.42-2.482-0.463-3.021c-0.073-0.923-1.388-3.667-1.52-3.948"/>
	
		<path fill="#FFFFFF" stroke="#1B2226" stroke-width="0.7706" stroke-linecap="round" stroke-linejoin="round" stroke-miterlimit="10" d="
		M36.817,31.426c-0.255,0.79-1.531,3.754-1.808,4.145c-0.812,1.149-1.352,2.074-1.604,2.455c-0.665,1.007,0.404,1.635,1.132,0.958
		c0.36-0.335,0.536-0.497,0.604-0.373c0.042,0.081-0.493,0.767-0.447,1.686c0.101,1.948,3.883,2.726,4.56-0.132
		c0.303-1.279,0.419-2.484,0.463-3.022c0.073-0.923,1.387-3.667,1.519-3.947"/>
</g>
</svg>
