<?xml version="1.0" encoding="utf-8"?>
<!-- Generator: Adobe Illustrator 16.0.0, SVG Export Plug-In . SVG Version: 6.00 Build 0)  -->
<!DOCTYPE svg PUBLIC "-//W3C//DTD SVG 1.1//EN" "http://www.w3.org/Graphics/SVG/1.1/DTD/svg11.dtd">
<svg version="1.1" id="레이어_1" xmlns="http://www.w3.org/2000/svg" xmlns:xlink="http://www.w3.org/1999/xlink" x="0px"
	 y="0px" width="current" height="current" viewBox="6477.5 590.875 51.125 7.313"
	 enable-background="new 6477.5 590.875 51.125 7.313" xml:space="preserve">
<g enable-background="new    ">
	<path fill="#F4E9FF" stroke="#0A0523" stroke-width="0.2724" stroke-miterlimit="10" d="M6481.488,593.027l0.021,4.595l-1.96,0.009
		l-0.021-4.595l-1.397,0.006l-0.006-1.447l4.753-0.021l0.007,1.447L6481.488,593.027z"/>
	<path fill="#F4E9FF" stroke="#0A0523" stroke-width="0.2724" stroke-miterlimit="10" d="M6487.084,597.689
		c-0.948,0.005-1.722-0.274-2.322-0.835c-0.6-0.561-0.901-1.313-0.906-2.258c-0.004-0.903,0.278-1.65,0.847-2.242
		c0.568-0.591,1.358-0.889,2.372-0.894c0.938-0.005,1.704,0.27,2.297,0.821c0.594,0.553,0.893,1.292,0.896,2.219
		c0.005,0.959-0.29,1.729-0.883,2.311S6488.024,597.685,6487.084,597.689z M6487.067,596.317c0.349-0.002,0.599-0.14,0.751-0.413
		s0.227-0.773,0.223-1.499c-0.005-1.051-0.322-1.575-0.95-1.572c-0.678,0.003-1.015,0.604-1.009,1.802
		C6486.088,595.759,6486.416,596.32,6487.067,596.317z"/>
	<path fill="#F4E9FF" stroke="#0A0523" stroke-width="0.2724" stroke-miterlimit="10" d="M6491.833,597.574l-0.027-6.043
		l2.606-0.012c1.132-0.006,1.98,0.292,2.546,0.891c0.565,0.6,0.851,1.295,0.854,2.086c0.004,0.903-0.295,1.639-0.896,2.207
		c-0.602,0.567-1.384,0.854-2.348,0.858L6491.833,597.574z M6493.896,596.174l0.538-0.002c0.342-0.002,0.63-0.152,0.864-0.451
		c0.233-0.299,0.35-0.705,0.347-1.219c-0.002-0.439-0.107-0.818-0.318-1.137c-0.211-0.317-0.514-0.476-0.908-0.474l-0.538,0.002
		L6493.896,596.174z"/>
	<path fill="#F4E9FF" stroke="#0A0523" stroke-width="0.2724" stroke-miterlimit="10" d="M6502.29,597.619
		c-0.948,0.004-1.722-0.274-2.321-0.835c-0.6-0.562-0.902-1.313-0.906-2.258c-0.004-0.903,0.277-1.65,0.846-2.242
		c0.568-0.591,1.359-0.89,2.373-0.894c0.938-0.005,1.703,0.27,2.297,0.821c0.593,0.553,0.892,1.292,0.896,2.219
		c0.004,0.959-0.291,1.729-0.883,2.311C6503.998,597.323,6503.23,597.615,6502.29,597.619z M6502.273,596.247
		c0.35-0.002,0.6-0.14,0.751-0.413s0.227-0.773,0.223-1.5c-0.005-1.051-0.321-1.574-0.95-1.571
		c-0.678,0.003-1.014,0.604-1.008,1.802C6501.294,595.689,6501.622,596.25,6502.273,596.247z"/>
	<path fill="#F4E9FF" stroke="#0A0523" stroke-width="0.2724" stroke-miterlimit="10" d="M6511.757,596l0.007,1.482l-4.725,0.021
		l-0.027-6.042l2.068-0.01l0.021,4.56L6511.757,596z"/>
	<path fill="#F4E9FF" stroke="#0A0523" stroke-width="0.2724" stroke-miterlimit="10" d="M6515.202,591.424l0.028,6.043l-2.068,0.01
		l-0.028-6.043L6515.202,591.424z"/>
	<path fill="#F4E9FF" stroke="#0A0523" stroke-width="0.2724" stroke-miterlimit="10" d="M6516.378,595.713l1.919-0.318
		c0.163,0.486,0.579,0.728,1.247,0.725c0.521-0.003,0.779-0.128,0.778-0.375c0-0.131-0.061-0.231-0.182-0.303
		c-0.12-0.072-0.336-0.135-0.645-0.189c-1.184-0.198-1.943-0.46-2.279-0.786c-0.338-0.326-0.508-0.71-0.51-1.153
		c-0.002-0.569,0.236-1.045,0.717-1.425s1.174-0.572,2.078-0.576c1.373-0.006,2.281,0.484,2.727,1.471l-1.71,0.473
		c-0.18-0.403-0.541-0.604-1.084-0.602c-0.451,0.002-0.676,0.128-0.675,0.379c0.001,0.112,0.052,0.199,0.154,0.261
		s0.3,0.119,0.594,0.174c0.807,0.149,1.38,0.282,1.72,0.398c0.339,0.116,0.623,0.316,0.852,0.6c0.229,0.284,0.343,0.62,0.345,1.007
		c0.003,0.611-0.271,1.107-0.822,1.489c-0.551,0.383-1.275,0.575-2.174,0.58C6517.785,597.548,6516.769,596.939,6516.378,595.713z"
		/>
	<path fill="#F4E9FF" stroke="#0A0523" stroke-width="0.2724" stroke-miterlimit="10" d="M6526.728,592.82l0.021,4.595l-1.959,0.009
		l-0.021-4.595l-1.396,0.006l-0.007-1.447l4.753-0.021l0.008,1.447L6526.728,592.82z"/>
</g>
</svg>
