<?xml version="1.0" encoding="utf-8"?>
<!-- Generator: Adobe Illustrator 16.0.0, SVG Export Plug-In . SVG Version: 6.00 Build 0)  -->
<!DOCTYPE svg PUBLIC "-//W3C//DTD SVG 1.1//EN" "http://www.w3.org/Graphics/SVG/1.1/DTD/svg11.dtd">
<svg version="1.1" id="레이어_1" xmlns="http://www.w3.org/2000/svg" xmlns:xlink="http://www.w3.org/1999/xlink" x="0px"
	 y="0px" width="current" height="current" viewBox="6394.029 523.28 202.721 137.471"
	 enable-background="new 6394.029 523.28 202.721 137.471" xml:space="preserve">
<path fill="#BAB0C6" d="M6591.732,527.575v50.833h-68.002c-1.655,3.051-4.918,5.086-8.443,5.173
	c-0.512,0.467-1.173,0.852-1.96,1.068c0.78,0.491,1.644,0.851,2.577,1.111c4.503,1.255,9.146-0.758,11.233-4.88h67.892v-53.306
	H6591.732z"/>
<path fill="#BAB0C6" d="M6513.077,578.408h-7.9v2.474h6.788C6512.78,580.073,6513.188,579.078,6513.077,578.408z"/>
<g>
	<path fill="#E7D2FF" d="M6523.73,579.068h68.002v-50.834v-2.473h-89.853v53.307h3.297h7.9c0.11,0.669-0.297,1.664-1.112,2.473
		c-0.523,0.52-1.213,0.964-2.046,1.192c0.78,0.492,1.644,0.902,2.578,1.162c0.932,0.26,1.87,0.368,2.79,0.346
		C6518.813,584.154,6522.075,582.118,6523.73,579.068z"/>
	<path fill="#0A0523" d="M6515.05,584.724c-0.001,0-0.001,0-0.002,0c-0.908,0-1.81-0.123-2.681-0.366
		c-0.916-0.255-1.826-0.665-2.704-1.218c-0.161-0.102-0.248-0.289-0.22-0.478c0.027-0.188,0.164-0.343,0.348-0.394
		c0.686-0.188,1.32-0.558,1.836-1.069c0.561-0.557,0.875-1.18,0.962-1.651h-10.709c-0.266,0-0.481-0.215-0.481-0.48V525.76
		c0-0.266,0.216-0.481,0.481-0.481h89.853c0.266,0,0.48,0.215,0.48,0.481v53.307c0,0.266-0.215,0.48-0.48,0.48h-67.721
		c-1.781,3.064-5.169,5.085-8.713,5.173C6515.216,584.723,6515.133,584.724,6515.05,584.724z M6511.031,582.81
		c0.526,0.265,1.061,0.473,1.595,0.622c0.786,0.219,1.602,0.33,2.422,0.33c0.001,0,0.001,0,0.002,0c0.075,0,0.15-0.001,0.226-0.003
		c3.302-0.081,6.454-2.013,8.032-4.921c0.084-0.154,0.246-0.251,0.423-0.251h67.521v-52.346h-88.891v52.346h10.717
		c0.234,0,0.436,0.17,0.474,0.401c0.144,0.863-0.346,1.999-1.246,2.894C6511.927,582.256,6511.496,582.57,6511.031,582.81z"/>
</g>
<linearGradient id="SVGID_1_" gradientUnits="userSpaceOnUse" x1="4304.1963" y1="1877.9446" x2="4404.6299" y2="1877.9446" gradientTransform="matrix(1.1486 0.1984 0.1702 -0.9854 1139.1622 1629.3389)">
	<stop  offset="0" style="stop-color:#FFCCCC"/>
	<stop  offset="0.8325" style="stop-color:#AD99E2"/>
	<stop  offset="0.8657" style="stop-color:#A999DE"/>
</linearGradient>
<path fill="url(#SVGID_1_)" d="M6502.236,634.351c-6.291,0.217-74.32,2.087-82.394,2.187c-4.54,0.056-21.244-5.792-18.175,7.282
	c1.405,5.982,17.916,8.504,26.893,7.98c14.417-0.843,16.628-3.637,25.51,4.044c6.193,5.354,11.606,4.041,17.309,0.408
	c10.611-6.762,37.188-1.821,46.023-9.342C6522.651,642.442,6519.021,633.774,6502.236,634.351z"/>
<g>
	<g>
		<path fill="#FFFFFF" d="M6470.001,567.656c-3.679-0.595-27.87-1.76-43.283-1.737c-2.675,27.002-0.856,61.248,3.847,77.143
			c5.442-0.443,12.865-2.592,14.265-2.726c1.572,1.429,10.843,9.338,11.612,10.628s1.906,3.423,2.222,4.249
			c0.314,0.818,1.646,0.884,1.973-0.052s-0.186-2.217-0.264-2.856c1.553,1.019,3.271,1.997,4.075,2.247
			c3.583,1.114,5.544-3.136,3.944-5.603c-1.147-1.77-5.12-2.428-6.185-3.604s-5.388-7.104-5.5-7.729
			c0.796-0.139,17.526-1.226,20.57-3.057C6480.322,632.73,6471.474,567.894,6470.001,567.656z"/>
		<path d="M6459.381,656.228c-0.513-0.088-0.923-0.414-1.098-0.87c-0.307-0.803-1.43-2.909-2.191-4.186
			c-0.558-0.937-6.311-5.959-9.4-8.657c-0.876-0.766-1.59-1.388-1.995-1.752c-0.515,0.079-1.532,0.318-2.783,0.612
			c-3.033,0.713-7.616,1.791-11.316,2.092c-0.192,0.016-0.368-0.105-0.423-0.29c-2.299-7.769-3.97-20.021-4.707-34.502
			c-0.742-14.603-0.441-29.802,0.846-42.798c0.021-0.208,0.195-0.366,0.405-0.367c15.182-0.021,39.502,1.121,43.349,1.743
			c0.313,0.054,0.497,0.288,0.832,1.602c0.208,0.814,0.458,1.998,0.743,3.518c1.473,7.863,3.638,23.411,5.035,36.164
			c0.794,7.245,1.324,13.391,1.534,17.772c0.118,2.458,0.139,4.403,0.06,5.784c-0.121,2.14-0.463,2.624-0.783,2.816
			c-2.298,1.381-11.374,2.305-19.024,2.954c-0.44,0.037-0.835,0.07-1.133,0.097c0.914,1.519,4.248,6.084,5.179,7.111
			c0.396,0.438,1.361,0.835,2.383,1.255c1.461,0.602,3.118,1.284,3.842,2.4c0.876,1.351,0.827,3.293-0.12,4.728
			c-0.851,1.29-2.199,1.876-3.701,1.616c0,0,0,0-0.001,0c-0.191-0.032-0.389-0.075-0.584-0.137c-0.77-0.239-2.146-1.013-3.349-1.762
			c0.147,0.65,0.278,1.443,0.041,2.12C6460.784,655.969,6460.11,656.354,6459.381,656.228z M6444.899,639.934
			c0.075,0.013,0.146,0.047,0.204,0.1c0.361,0.328,1.139,1.008,2.124,1.867c4.523,3.95,8.988,7.888,9.564,8.854
			c0.794,1.332,1.926,3.459,2.253,4.312c0.07,0.187,0.248,0.32,0.475,0.359c0.278,0.048,0.612-0.057,0.732-0.4
			c0.199-0.569,0.01-1.356-0.143-1.989c-0.063-0.261-0.118-0.486-0.143-0.682c-0.019-0.158,0.055-0.313,0.189-0.396
			s0.306-0.081,0.438,0.006c1.642,1.077,3.276,1.981,3.974,2.199c0.162,0.05,0.323,0.089,0.48,0.116
			c1.168,0.201,2.22-0.26,2.884-1.267c0.774-1.174,0.822-2.754,0.116-3.841c-0.584-0.903-2.116-1.533-3.468-2.09
			c-1.157-0.477-2.156-0.889-2.676-1.462c-0.909-1.004-5.454-7.125-5.599-7.93c-0.02-0.107,0.005-0.217,0.066-0.306
			c0.063-0.089,0.157-0.149,0.265-0.168c0.15-0.026,0.647-0.069,1.757-0.163c4.015-0.341,16.227-1.378,18.668-2.837
			c0.146-0.133,0.803-1.266,0.163-10.822c-0.486-7.263-1.48-16.128-2.229-22.287c-0.947-7.796-2.069-15.909-3.078-22.262
			c-1.376-8.67-1.955-10.446-2.124-10.809c-4.199-0.617-27.709-1.714-42.706-1.71c-2.552,26.228-0.867,60.24,3.773,76.301
			c3.58-0.332,7.946-1.357,10.865-2.044c1.498-0.352,2.581-0.606,3.064-0.653C6444.827,639.926,6444.863,639.928,6444.899,639.934z"
			/>
	</g>
	<g>
		<path fill="#1B2226" d="M6463.76,564.917c1.246-4.242-1.415-6.948-3.908-8.967c-3.974-3.218-4.548-8.846-1.375-12.142
			c-0.66-0.486-5.044,1.469-4.935,6.289c0.086,3.808,2.335,6.263,4.955,8.461c2.096,1.758,3.173,3.921,2.564,6.184
			C6461.967,565.244,6463.76,564.917,6463.76,564.917z"/>
		<path d="M6461.667,565.364C6461.667,565.363,6461.667,565.364,6461.667,565.364c-0.314-0.055-0.584-0.144-0.803-0.265
			l-0.278-0.154l0.082-0.308c0.675-2.513-0.95-4.522-2.433-5.766c-2.596-2.178-5.009-4.746-5.101-8.765
			c-0.066-2.948,1.465-4.716,2.384-5.508c0.979-0.844,2.186-1.371,2.867-1.254c0.13,0.022,0.241,0.068,0.332,0.136l0.375,0.275
			l-0.322,0.335c-1.362,1.415-2.042,3.331-1.914,5.397c0.146,2.351,1.331,4.59,3.252,6.145c2.718,2.201,5.323,5.039,4.042,9.398
			l-0.07,0.241l-0.247,0.044C6463.785,565.326,6462.641,565.531,6461.667,565.364z M6461.537,564.498
			c0.082,0.024,0.171,0.045,0.269,0.063c0.584,0.101,1.271,0.038,1.633-0.008c0.976-3.749-1.264-6.198-3.843-8.285
			c-2.098-1.699-3.392-4.15-3.552-6.729c-0.12-1.941,0.404-3.769,1.489-5.242c-0.41,0.159-0.938,0.449-1.482,0.92
			c-0.811,0.697-2.16,2.26-2.102,4.872c0.079,3.489,1.98,5.784,4.811,8.158C6460.991,560.119,6461.968,562.326,6461.537,564.498z"/>
	</g>
	<g>
		
			<ellipse transform="matrix(0.0046 -1 1 0.0046 5827.6748 7033.373)" fill="#1B2226" cx="6446.609" cy="589.522" rx="7.383" ry="1.528"/>
	</g>
	<g>
		
			<ellipse transform="matrix(-0.0653 -0.9979 0.9979 -0.0653 6249.3779 7098.7021)" fill="#1B2226" cx="6449.441" cy="622.389" rx="7.383" ry="1.527"/>
	</g>
	<g>
		<circle fill="#FDA678" cx="6433.659" cy="624.775" r="8.246"/>
	</g>
	<g>
		<circle fill="#FDA678" cx="6432.086" cy="591.204" r="8.658"/>
	</g>
	<g>
		<path fill="#1B2226" d="M6414.291,566.633c-5.1,1.766-9.967,6.011-11.869,17.028s-0.128,41.913,1.238,46.447
			c1.367,4.535,15.627,11.959,21.917,12.879c1.527,0.224,3.241,0.216,4.987,0.073c-4.703-15.895-6.521-50.141-3.846-77.143
			C6420.527,565.927,6415.752,566.127,6414.291,566.633z"/>
		<path d="M6425.191,643.256C6425.191,643.256,6425.191,643.256,6425.191,643.256c-3.2-0.549-8.239-2.555-12.842-5.163
			c-2.429-1.378-8.176-4.884-9.08-7.887c-1.414-4.694-3.138-35.693-1.249-46.624c0.887-5.139,2.508-9.227,4.816-12.162
			c1.923-2.444,4.318-4.144,7.32-5.182c1.386-0.48,5.61-0.744,12.561-0.744h0.45l-0.044,0.456
			c-2.621,26.452-0.902,60.992,3.831,76.991l0.143,0.482l-0.5,0.042c-1.943,0.158-3.653,0.092-5.082-0.118
			C6425.41,643.333,6425.302,643.256,6425.191,643.256z M6426.269,566.326c-8.194,0.025-10.967,0.388-11.845,0.691
			c-6.236,2.158-10.031,7.625-11.601,16.713c-0.828,4.796-1.047,14.115-0.601,25.569c0.372,9.575,1.158,18.471,1.827,20.691
			c0.568,1.888,3.822,4.666,8.702,7.434c4.528,2.567,9.467,4.573,12.58,5.111c0.104,0.021,0.204,0.034,0.304,0.049
			c1.244,0.183,2.722,0.218,4.397,0.107c-2.227-7.788-3.845-19.834-4.565-34.017C6424.734,594.24,6425.019,579.223,6426.269,566.326
			z"/>
	</g>
	<g>
		<path d="M6418.697,637.583c1.604-9.51-3.49-19.286-9.795-22.029c-1.94-0.843-4.497-1.233-6.257-1.1
			c-0.771,0.542-1.46,1.225-2.02,2.055c-3.588,5.33-2.087,21.231,8.512,27.697c1.404,0.856,3.742,1.396,6.141,1.036
			C6417.25,643.481,6418.223,640.401,6418.697,637.583z"/>
		<path d="M6411.897,645.586C6411.896,645.586,6411.896,645.586,6411.897,645.586c-1.121-0.194-2.177-0.558-2.971-1.042
			c-2.592-1.581-4.786-3.786-6.521-6.563c-1.511-2.417-2.653-5.269-3.305-8.249c-0.576-2.631-0.764-5.298-0.544-7.717
			c0.217-2.393,0.815-4.375,1.731-5.735c0.566-0.841,1.28-1.567,2.121-2.159c0.061-0.043,0.131-0.067,0.204-0.073
			c0.928-0.07,2.07,0,3.217,0.198c1.176,0.203,2.294,0.526,3.233,0.935c3.198,1.391,6.14,4.554,8.07,8.678
			c2.033,4.345,2.731,9.243,1.964,13.793c-0.622,3.69-1.816,6.347-3.55,7.895c-0.059,0.053-0.131,0.077-0.209,0.089
			C6414.216,645.804,6413.027,645.781,6411.897,645.586z M6402.787,614.853c-0.72,0.522-1.333,1.155-1.822,1.884
			c-1.748,2.596-2.178,7.75-1.068,12.824c0.804,3.676,3.102,10.412,9.455,14.288c0.708,0.432,1.662,0.758,2.684,0.934l0,0
			c1.005,0.174,2.06,0.202,3.063,0.064c1.544-1.435,2.619-3.898,3.199-7.337c0.739-4.388,0.064-9.112-1.899-13.31
			c-1.848-3.946-4.639-6.962-7.657-8.274c-0.881-0.383-1.935-0.687-3.047-0.878C6404.657,614.869,6403.631,614.801,6402.787,614.853
			z"/>
	</g>
	<g>
		<path fill="#1B2226" d="M6410.563,613.114c-2.54-0.674-5.604-0.288-7.918,1.341c1.76-0.134,4.316,0.257,6.257,1.1
			c6.305,2.743,11.398,12.52,9.795,22.029c-0.476,2.817-1.447,5.897-3.42,7.659C6429.129,640.129,6426.45,617.326,6410.563,613.114z
			"/>
		<path d="M6415.209,645.644c-0.113-0.02-0.218-0.087-0.28-0.191c-0.101-0.168-0.068-0.384,0.077-0.515
			c1.592-1.421,2.699-3.918,3.289-7.422c0.74-4.389,0.065-9.116-1.898-13.313c-1.848-3.946-4.639-6.963-7.657-8.276
			c-0.88-0.382-1.934-0.687-3.047-0.878c-1.082-0.188-2.153-0.254-3.017-0.188c-0.184,0.014-0.353-0.097-0.414-0.27
			c-0.063-0.172-0.001-0.364,0.148-0.471c2.047-1.44,4.824-2.032,7.428-1.583c0.28,0.049,0.56,0.109,0.83,0.182
			c4.115,1.092,7.622,3.484,10.141,6.921c2.281,3.111,3.639,6.96,3.821,10.837c0.337,7.121-3.193,12.926-9.211,15.147
			C6415.35,645.651,6415.277,645.656,6415.209,645.644z M6405.831,614.246c1.176,0.203,2.294,0.526,3.233,0.935
			c3.198,1.391,6.14,4.554,8.07,8.677c2.033,4.346,2.731,9.244,1.964,13.793c-0.461,2.735-1.235,4.901-2.312,6.471
			c4.658-2.481,7.315-7.536,7.029-13.606c-0.32-6.788-4.575-14.68-13.357-17.009c-0.247-0.065-0.503-0.121-0.76-0.165
			c-1.883-0.326-3.86-0.062-5.53,0.707C6404.705,614.082,6405.268,614.149,6405.831,614.246z"/>
	</g>
	<g>
		<path d="M6415.259,598.133c1.604-9.51-3.49-19.286-9.796-22.029c-1.94-0.844-4.496-1.233-6.257-1.101
			c-0.771,0.544-1.46,1.226-2.018,2.056c-3.589,5.33-2.088,21.23,8.511,27.697c1.404,0.856,3.742,1.396,6.141,1.036
			C6413.812,604.031,6414.783,600.95,6415.259,598.133z"/>
		<path d="M6408.458,606.135L6408.458,606.135c-1.12-0.193-2.176-0.557-2.97-1.041c-2.592-1.581-4.786-3.786-6.521-6.563
			c-1.51-2.417-2.652-5.269-3.305-8.249c-0.575-2.631-0.763-5.298-0.544-7.717c0.218-2.393,0.816-4.376,1.731-5.735
			c0.567-0.842,1.28-1.568,2.122-2.16c0.061-0.042,0.131-0.066,0.204-0.072c0.928-0.071,2.07,0,3.217,0.198
			c1.176,0.202,2.294,0.526,3.233,0.935c3.198,1.391,6.14,4.554,8.069,8.678c2.034,4.345,2.732,9.243,1.965,13.793
			c-0.622,3.69-1.816,6.348-3.55,7.895c-0.06,0.053-0.131,0.077-0.209,0.089C6410.777,606.354,6409.588,606.33,6408.458,606.135z
			 M6399.35,575.403c-0.721,0.521-1.334,1.155-1.824,1.884c-1.748,2.596-2.178,7.75-1.068,12.825
			c0.804,3.675,3.103,10.411,9.455,14.287c0.709,0.433,1.663,0.758,2.685,0.934l0,0c1.004,0.174,2.059,0.202,3.063,0.064
			c1.543-1.434,2.618-3.898,3.198-7.336c0.74-4.388,0.064-9.113-1.899-13.311c-1.847-3.946-4.639-6.961-7.657-8.274
			c-0.881-0.383-1.934-0.686-3.047-0.878C6401.218,575.419,6400.191,575.351,6399.35,575.403z"/>
	</g>
	<g>
		<path fill="#1B2226" d="M6407.124,573.663c-2.539-0.674-5.604-0.288-7.918,1.341c1.76-0.133,4.316,0.257,6.257,1.101
			c6.305,2.742,11.398,12.519,9.795,22.028c-0.475,2.817-1.446,5.897-3.419,7.659
			C6425.69,600.679,6423.012,577.876,6407.124,573.663z"/>
		<path d="M6411.77,606.194c-0.113-0.02-0.217-0.087-0.28-0.191c-0.101-0.168-0.067-0.384,0.078-0.514
			c1.592-1.421,2.698-3.919,3.289-7.423c0.739-4.388,0.065-9.116-1.899-13.312c-1.847-3.947-4.638-6.964-7.656-8.276
			c-0.881-0.383-1.935-0.687-3.048-0.879c-1.081-0.187-2.153-0.254-3.017-0.188c-0.183,0.014-0.353-0.097-0.414-0.27
			c-0.063-0.172-0.001-0.365,0.148-0.471c2.048-1.44,4.824-2.031,7.428-1.582c0.28,0.049,0.56,0.109,0.83,0.181
			c4.115,1.092,7.622,3.484,10.141,6.921c2.281,3.111,3.638,6.96,3.821,10.837c0.337,7.121-3.193,12.926-9.211,15.147
			C6411.911,606.2,6411.838,606.205,6411.77,606.194z M6402.393,574.796c1.176,0.203,2.294,0.526,3.233,0.935
			c3.198,1.391,6.14,4.554,8.069,8.678c2.034,4.345,2.732,9.243,1.965,13.793c-0.461,2.734-1.236,4.901-2.312,6.47
			c4.658-2.481,7.315-7.536,7.028-13.606c-0.32-6.787-4.574-14.679-13.356-17.008c-0.247-0.065-0.503-0.121-0.76-0.166
			c-1.883-0.325-3.86-0.062-5.53,0.707C6401.267,574.632,6401.829,574.698,6402.393,574.796z"/>
	</g>
	<g>
		
			<ellipse transform="matrix(-0.0649 -0.9979 0.9979 -0.0649 6246.7749 7098.5664)" fill="#FFFFFF" cx="6449.394" cy="622.38" rx="1.287" ry="0.093"/>
	</g>
	<g>
		
			<ellipse transform="matrix(-0.0216 -0.9998 0.9998 -0.0216 5995.4702 7048.6006)" fill="#FFFFFF" cx="6446.623" cy="590.711" rx="1.287" ry="0.093"/>
	</g>
	<g>
		<path d="M6465.505,608.883L6465.505,608.883c-0.569-0.099-1.002-0.684-1.03-1.393l-0.266-6.82
			c-0.015-0.365,0.081-0.718,0.269-0.992c0.209-0.309,0.521-0.492,0.855-0.506l3.46-0.135l0.379,9.725l-3.46,0.135
			C6465.643,608.9,6465.573,608.895,6465.505,608.883z M6468.011,599.883l-2.646,0.104c-0.1,0.004-0.177,0.095-0.214,0.149
			c-0.088,0.13-0.135,0.313-0.127,0.502l0.266,6.82c0.014,0.338,0.194,0.594,0.354,0.621c0.013,0.003,0.024,0.003,0.036,0.003
			l2.646-0.104L6468.011,599.883z"/>
	</g>
	<g>
		
			<rect x="6466.245" y="602.019" transform="matrix(-0.0395 -0.9992 0.9992 -0.0395 6118.8662 7089.4082)" width="0.815" height="3.829"/>
	</g>
	<g>
		<path d="M6454.941,548.146c-0.325-0.057-0.636-0.169-0.829-0.383c-0.06-0.066-0.055-0.17,0.013-0.229
			c0.066-0.061,0.17-0.056,0.229,0.012c0.352,0.39,1.437,0.339,1.824,0.287c0.09-0.012,0.171,0.051,0.184,0.14
			c0.012,0.089-0.051,0.171-0.14,0.183C6456.12,548.169,6455.509,548.243,6454.941,548.146z"/>
	</g>
	<g>
		<path d="M6454.201,550.972c-0.099-0.018-0.198-0.04-0.299-0.069c-0.086-0.025-0.136-0.115-0.111-0.201
			c0.025-0.087,0.116-0.137,0.201-0.111c0.964,0.278,1.803-0.117,2.119-0.3c0.078-0.045,0.178-0.019,0.223,0.06
			s0.019,0.178-0.06,0.223C6455.955,550.757,6455.154,551.136,6454.201,550.972z"/>
	</g>
	<g>
		<path d="M6454.813,553.872c-0.079-0.014-0.139-0.085-0.135-0.168c0.004-0.09,0.079-0.159,0.17-0.155
			c1.011,0.043,1.481-0.335,1.825-0.611c0.067-0.055,0.131-0.105,0.194-0.15c0.074-0.052,0.176-0.034,0.228,0.039
			c0.052,0.074,0.034,0.176-0.04,0.228c-0.055,0.038-0.114,0.087-0.179,0.138c-0.361,0.291-0.908,0.731-2.043,0.683
			C6454.827,553.874,6454.82,553.873,6454.813,553.872z"/>
	</g>
	<g>
		<path d="M6456.394,556.212c-0.068-0.012-0.125-0.067-0.134-0.141c-0.011-0.089,0.052-0.171,0.142-0.183
			c0.748-0.094,1.142-0.401,1.489-0.673c0.084-0.065,0.162-0.127,0.244-0.185c0.073-0.052,0.175-0.034,0.227,0.039
			s0.034,0.176-0.039,0.227c-0.075,0.054-0.15,0.112-0.23,0.175c-0.362,0.283-0.813,0.637-1.65,0.741
			C6456.425,556.215,6456.409,556.214,6456.394,556.212z"/>
	</g>
	<g>
		<path d="M6458.477,558.266c-0.066-0.011-0.122-0.064-0.133-0.136c-0.014-0.089,0.048-0.172,0.137-0.186
			c1.126-0.171,1.441-0.653,1.72-1.078c0.049-0.074,0.095-0.145,0.145-0.212c0.053-0.072,0.155-0.088,0.228-0.034
			c0.072,0.053,0.088,0.154,0.034,0.228c-0.044,0.06-0.087,0.127-0.134,0.197c-0.284,0.434-0.673,1.028-1.943,1.222
			C6458.512,558.27,6458.494,558.27,6458.477,558.266z"/>
	</g>
	<g>
		<path d="M6460.584,559.953c-0.061-0.011-0.112-0.055-0.129-0.118c-0.024-0.087,0.027-0.177,0.113-0.2
			c0.687-0.188,1.134-0.501,1.408-0.985c0.044-0.078,0.143-0.106,0.222-0.063c0.078,0.045,0.105,0.144,0.062,0.223
			c-0.314,0.558-0.84,0.931-1.605,1.14C6460.631,559.956,6460.607,559.957,6460.584,559.953z"/>
	</g>
	<g>
		<path d="M6461.619,561.619c-0.073-0.013-0.131-0.074-0.135-0.151c-0.006-0.09,0.063-0.167,0.153-0.171
			c0.807-0.046,1.233-0.342,1.544-0.625c0.066-0.061,0.17-0.056,0.23,0.011s0.056,0.169-0.011,0.229
			c-0.333,0.304-0.831,0.658-1.745,0.709C6461.644,561.622,6461.631,561.621,6461.619,561.619z"/>
	</g>
	<g>
		<path fill="#1B2226" d="M6488.672,577.915c6.092,12.948,5.966,27.563,1.499,45.893c0.746,1.129,2.405,3.295,2.947,4.467
			c0.943,2.039-0.347,5.291-3.234,6.665c-3.124,1.488-17.935,5.697-25.03,4.414c-3.079-0.557-4.229-1.07-5.246-2.361
			c11.707-16.777,10.795-48.059-3.52-70.236c-0.767-1.222,0.348-3.886,1.629-4.321c5.586-1.901,20.078,0.872,26.946,3.62
			c5.452,2.181,7.835,5.377,5.823,9.603C6490.024,576.63,6489.106,577.554,6488.672,577.915z"/>
		<path d="M6464.875,639.771l-0.094-0.017c-3.182-0.575-4.414-1.139-5.494-2.511l-0.187-0.237l0.173-0.247
			c5.68-8.14,8.494-19.804,7.925-32.842c-0.579-13.276-4.646-26.396-11.453-36.94c-0.405-0.646-0.423-1.617-0.05-2.666
			c0.316-0.891,0.979-1.952,1.89-2.263c2.775-0.944,8.081-0.844,14.56,0.274c4.725,0.816,9.461,2.069,12.669,3.354
			c3.45,1.38,5.61,3.132,6.423,5.207c0.59,1.51,0.462,3.175-0.383,4.949c-0.423,0.889-1.175,1.716-1.685,2.188
			c5.682,12.27,6.123,26.392,1.439,45.71c0.211,0.313,0.481,0.694,0.766,1.096c0.806,1.138,1.72,2.427,2.113,3.278
			c0.515,1.113,0.449,2.543-0.181,3.922c-0.652,1.43-1.806,2.595-3.249,3.282c-1.636,0.779-6.217,2.212-11.051,3.262
			C6474.747,639.495,6468.836,640.455,6464.875,639.771z M6460.118,636.97c0.904,1.031,2.025,1.479,4.808,1.983l0.088,0.016
			c2.99,0.516,7.898,0.092,13.821-1.194c4.776-1.038,9.279-2.442,10.873-3.202c1.271-0.605,2.286-1.63,2.858-2.885
			c0.522-1.146,0.591-2.358,0.182-3.242c-0.361-0.783-1.292-2.095-2.038-3.149c-0.334-0.472-0.649-0.917-0.879-1.265l-0.098-0.148
			l0.042-0.172c4.718-19.36,4.264-33.431-1.473-45.622l-0.134-0.285l0.242-0.201c0.4-0.333,1.272-1.205,1.708-2.12
			c0.743-1.563,0.864-3.011,0.359-4.303c-0.727-1.856-2.734-3.454-5.967-4.748c-3.158-1.264-7.833-2.5-12.506-3.307
			c-6.348-1.096-11.508-1.207-14.157-0.305c-0.508,0.172-1.077,0.897-1.385,1.764c-0.281,0.789-0.292,1.539-0.031,1.956
			c6.881,10.659,10.994,23.923,11.58,37.341c0.281,6.442-0.26,12.59-1.606,18.271
			C6465.049,627.872,6462.934,632.856,6460.118,636.97z"/>
	</g>
	<g>
		<circle fill="#FDA678" cx="6474.614" cy="592.806" r="1.412"/>
	</g>
	<g>
		<circle fill="#FDA678" cx="6477.045" cy="612.24" r="1.412"/>
	</g>
	<g>
		<path fill="#FDA678" d="M6484.318,570.12c-0.274,0.469,1.089,4.603,2.194,5.65c0.71,0.674,2.341-1.745,1.746-4.053
			C6487.871,570.211,6484.787,569.32,6484.318,570.12z"/>
	</g>
	<g>
		<path fill="#FDA678" d="M6488.356,627.063c-0.499,0.215-1.846,4.353-1.575,5.853c0.174,0.964,2.92-0.021,3.807-2.232
			C6491.167,629.239,6489.209,626.695,6488.356,627.063z"/>
	</g>
	<g>
		<path fill="#2D363A" d="M6423.241,630.184c0.366,1.386-0.146,7.853-2.811,9.807c-0.023-0.5,2.161-5.331,0.436-9.459
			C6422.217,630.765,6423.241,630.184,6423.241,630.184z"/>
	</g>
	<g>
		<path fill="#2D363A" d="M6419.491,591.093c0.367,1.387-0.146,7.854-2.81,9.808c-0.023-0.5,2.161-5.331,0.435-9.459
			C6418.468,591.674,6419.491,591.093,6419.491,591.093z"/>
	</g>
	<g>
		<path fill="#FFFFFF" d="M6441.15,578.149c-0.565,2.042-4.693,14.677-4.534,16.391c0.16,1.714,1.548,6.09,0.351,7.296
			c-1.151,1.161-2.181-0.181-2.57-0.289c-0.238,0.568-0.94,1.672-1.713,2.231c-1.563,1.132-7.111-0.572-6.508-3.99
			c0.395-2.238,2.556-6.781,3.187-8.297s1.345-14.296,1.345-14.296"/>
		<path d="M6430.285,604.444c-0.852-0.146-1.75-0.474-2.528-0.961c-1.537-0.962-2.241-2.3-1.982-3.767
			c0.323-1.828,1.731-5.015,2.663-7.124c0.227-0.511,0.421-0.952,0.549-1.259c0.442-1.064,1.028-9.053,1.313-14.162
			c0.013-0.224,0.205-0.396,0.43-0.384c0.225,0.013,0.396,0.205,0.384,0.43c-0.073,1.315-0.736,12.895-1.375,14.43
			c-0.131,0.315-0.327,0.76-0.555,1.275c-0.861,1.947-2.302,5.205-2.607,6.937c-0.266,1.508,0.896,2.485,1.613,2.935
			c1.559,0.976,3.566,1.153,4.255,0.655c0.697-0.506,1.353-1.527,1.575-2.059c0.08-0.189,0.287-0.29,0.485-0.235
			c0.159,0.045,0.307,0.151,0.492,0.286c0.608,0.442,1.085,0.709,1.681,0.108c0.729-0.734,0.2-3.381-0.149-5.132
			c-0.147-0.733-0.274-1.368-0.318-1.84c-0.119-1.278,1.735-7.408,3.646-13.575c0.429-1.387,0.769-2.48,0.901-2.962
			c0.06-0.217,0.283-0.344,0.501-0.284c0.217,0.061,0.344,0.284,0.284,0.502c-0.137,0.492-0.478,1.592-0.908,2.984
			c-1.211,3.906-3.728,12.035-3.613,13.26c0.04,0.43,0.163,1.044,0.305,1.757c0.43,2.147,0.965,4.821-0.07,5.864
			c-1.101,1.11-2.192,0.372-2.694,0.008c-0.354,0.645-0.97,1.492-1.64,1.978C6432.34,604.53,6431.351,604.628,6430.285,604.444z"/>
	</g>
</g>
</svg>
